<svg width="156" height="115" viewBox="0 0 156 115" fill="none" xmlns="http://www.w3.org/2000/svg">
<g opacity="0.2">
<path d="M42.6116 38.77C40.9975 38.0101 38.3283 39.2456 37.4772 41.0536C35.8526 44.505 41.1072 49.5034 43.0181 48.967C45.1534 48.3674 45.575 40.1651 42.6116 38.77Z" stroke="#7A7BB4" stroke-width="2" stroke-miterlimit="10" stroke-linecap="round" stroke-dasharray="50 50 50 50 50 50"/>
<path d="M34.5375 46.5874C33.9615 46.2538 27.8599 42.7201 24.4068 45.5167C21.9823 47.4804 21.9591 51.6777 23.7811 54.0367C27.3897 58.7088 38.5798 56.6142 39.7408 53.271C40.5227 51.0196 36.8518 47.9277 34.5375 46.5874Z" stroke="#7A7BB4" stroke-width="2" stroke-miterlimit="10" stroke-linecap="round" stroke-dasharray="50 50 50 50 50 50"/>
<path d="M42.389 104.28C57.2408 100.59 74.1163 96.8326 100.321 97.4725C114.976 97.8304 118.297 93.2773 129.404 87.6161C139.303 82.5707 144.165 72.5375 141.179 66.8513C138.164 61.1107 128.982 63.3962 121.461 54.8509C118.037 50.9589 118.639 48.2311 116.662 43.9152C110.4 30.2493 86.9322 19.5679 75.3596 25.2208C60.0706 32.6888 73.1412 64.957 56.051 73.7717C45.2406 79.3478 37.0698 68.6436 26.3958 76.8149C21.1069 80.8637 14.6385 86.5432 14.1382 92.7098C14.1382 92.7098 13.4378 107.787 42.389 104.28Z" stroke="#303188" stroke-width="2" stroke-miterlimit="10" stroke-linecap="round" stroke-dasharray="50 50 50 50 50 50"/>
<path d="M124.443 87.4889C124.443 87.4889 121.753 91.06 119.062 95.9597C116.636 100.378 114.791 106.332 114.384 111.302C113.241 111.248 111.986 111.198 110.63 111.149C102.594 110.864 90.9929 110.685 78.0935 110.685C63.4288 110.685 50.4425 110.916 42.4648 111.272C42.1902 111.285 41.9214 111.297 41.6588 111.309C31.6989 98.9502 11.6429 77.4181 30.0999 68.5602C30.0999 68.5602 31.452 68.1479 33.4792 67.2623C39.8951 64.4588 53.0796 56.9148 51.6131 42.6908C51.6131 42.6908 51.1134 40.0366 51.1134 36.3434C51.1134 27.7075 53.8443 13.3927 72.0754 14.046C83.1157 14.4422 93.2833 20.0668 99.4305 29.0697C105.46 37.8999 115.101 48.7642 122.952 42.5617C124.765 41.1294 127.161 40.5988 129.398 41.2285C135.05 42.8177 141.47 51.0448 124.443 87.4889Z" fill="#B2B2D6"/>
</g>
<path opacity="0.15" d="M150.494 112.39C150.494 113.056 118.709 113.597 79.5 113.597C57.3768 113.597 37.6173 113.425 24.597 113.155C21.598 113.093 18.957 113.025 16.727 112.954C15.2581 112.907 13.9675 112.858 12.8704 112.807C10.0476 112.677 8.50586 112.537 8.50586 112.39C8.50586 112.203 11.0082 112.025 15.4743 111.868C17.3033 111.803 19.4615 111.741 21.9121 111.684C34.8066 111.38 55.7968 111.183 79.5 111.183C100.35 111.183 119.1 111.335 132.089 111.579C143.525 111.793 150.494 112.078 150.494 112.39Z" fill="#7A7BB4"/>
<path d="M65.5293 55.352V48.8162C65.5293 47.4049 64.5472 46.2607 63.3358 46.2607H40.4181C39.2067 46.2607 38.2246 47.4049 38.2246 48.8162V58.0217V67.5425V114.474H110.428V62.7154C110.428 60.1231 108.624 58.0217 106.399 58.0217H67.8209C66.5552 58.0217 65.5293 56.8265 65.5293 55.352Z" fill="#303188"/>
<path d="M38.2012 114.474H110.405L120.544 69.5657C121.056 67.2974 119.588 65.0781 117.575 65.0781H51.7213C50.3262 65.0781 49.1065 66.1737 48.7516 67.7456L38.2012 114.474Z" fill="#7A7BB4"/>
<path opacity="0.5" d="M92.9224 111.661L94.3287 104.882C94.4283 104.402 94.8509 104.058 95.3408 104.058H110.481C111.136 104.058 111.626 104.66 111.493 105.303L110.087 112.082C109.987 112.562 109.564 112.906 109.075 112.906H93.9344C93.279 112.906 92.7891 112.304 92.9224 111.661Z" fill="#303188"/>
<path d="M85.2648 97.465H81.5458L79.123 91.6486L74.402 97.465H70.9141L77.5761 89.5345L74.2777 82.0879H77.8707L80.087 87.6203L84.4262 82.0879H87.9351L81.6064 89.7134L85.2648 97.465Z" fill="white"/>
<path d="M121.58 27.4627V43.0435C121.58 43.6337 121.102 44.1121 120.513 44.1121H106.751C106.162 44.1121 105.684 43.6337 105.684 43.0434V24.595C105.684 24.0048 106.162 23.5264 106.751 23.5264H117.577L117.648 23.5966L121.58 27.4627Z" fill="#C4C4E1"/>
<path opacity="0.1" d="M121.58 27.4628H118.517C118.037 27.4628 117.648 27.0733 117.648 26.5928V23.5967L121.58 27.4628Z" fill="black"/>
<path d="M112.369 35.4259V34.9366C112.369 34.5134 112.459 34.1454 112.64 33.8324C112.82 33.5195 113.15 33.1867 113.63 32.834C114.093 32.5034 114.398 32.2346 114.545 32.0273C114.693 31.8202 114.766 31.5887 114.766 31.3331C114.766 31.0466 114.661 30.8284 114.449 30.6785C114.238 30.5287 113.943 30.4537 113.564 30.4537C112.904 30.4537 112.151 30.6697 111.306 31.1017L110.586 29.6536C111.568 29.1027 112.609 28.8271 113.71 28.8271C114.617 28.8271 115.338 29.0453 115.873 29.4817C116.408 29.9181 116.675 30.4999 116.675 31.2273C116.675 31.7122 116.565 32.131 116.345 32.4835C116.125 32.8362 115.706 33.233 115.09 33.6737C114.667 33.9868 114.4 34.2248 114.288 34.3878C114.175 34.5509 114.119 34.7647 114.119 35.0291V35.4259H112.369ZM112.158 37.6872C112.158 37.3169 112.257 37.037 112.455 36.8474C112.653 36.658 112.941 36.5631 113.32 36.5631C113.685 36.5631 113.968 36.6601 114.169 36.854C114.369 37.048 114.469 37.3257 114.469 37.6871C114.469 38.0354 114.368 38.3098 114.165 38.5103C113.963 38.7108 113.681 38.8111 113.32 38.8111C112.95 38.8111 112.664 38.713 112.461 38.5169C112.259 38.3209 112.158 38.0442 112.158 37.6872Z" fill="#B2B2D6"/>
<path d="M16.3799 66.4647L21.1663 81.6059C21.3476 82.1794 21.0302 82.7915 20.4573 82.9731L7.08408 87.2105C6.51119 87.392 5.89979 87.0742 5.71844 86.5007L0.0509991 68.5727C-0.130306 67.9992 0.187133 67.3871 0.760018 67.2055L11.2803 63.8721L11.3713 63.9183L16.3799 66.4647Z" fill="#C4C4E1"/>
<path opacity="0.1" d="M16.3796 66.4643L13.4032 67.4074C12.9368 67.5552 12.4391 67.2965 12.2915 66.8296L11.3711 63.918L16.3796 66.4643Z" fill="black"/>
<path d="M15.2154 77.6852L13.4323 78.2502L10.8381 76.0041L10.0071 79.3355L8.33474 79.8654L9.57573 75.2889L6.16016 72.4431L7.88286 71.8972L10.3081 74.0471L11.0261 70.9013L12.7085 70.3682L11.5522 74.7569L15.2154 77.6852Z" fill="#B2B2D6"/>
<path d="M75.2714 20.5694L72.7238 29.4844C72.5585 30.0628 71.956 30.3976 71.3783 30.2322L57.8923 26.3694C57.3146 26.204 56.9805 25.6009 57.1458 25.0225L59.694 16.1054L60.0202 16.516L61.3601 16.0391L62.2449 17.1532L63.5848 16.6763L64.47 17.7905L65.8099 17.3136L66.6951 18.4278L68.035 17.9509L68.9202 19.0651L70.2601 18.5882L71.1453 19.7024L72.4848 19.2254L73.37 20.3396L74.7103 19.8628L75.2714 20.5694Z" fill="#C4C4E1"/>
<path d="M75.8865 9.51222V16.1208L75.153 15.5961L73.9954 16.4236L72.8382 15.5961L71.6815 16.4236L70.5243 15.5961L69.3671 16.4236L68.2099 15.5961L67.0527 16.4236L65.8956 15.5961L64.7384 16.4236L63.5812 15.5961L62.424 16.4236L61.2673 15.5961L60.1101 16.4236L59.6836 16.1187V6.58902C59.6836 5.98741 60.1704 5.5 60.7713 5.5H71.8058L71.879 5.57158L75.8865 9.51222Z" fill="#C4C4E1"/>
<path opacity="0.1" d="M75.8846 9.51294H72.7626C72.2735 9.51294 71.877 9.11594 71.877 8.62622V5.57227L75.8846 9.51294Z" fill="black"/>
<path d="M155.385 54.0479L152.837 62.9629C152.672 63.5413 152.069 63.8762 151.492 63.7107L138.006 59.8479C137.428 59.6824 137.094 59.0793 137.259 58.5009L139.807 49.5839L140.133 49.9945L141.473 49.5176L142.358 50.6317L143.698 50.1548L144.583 51.269L145.923 50.7921L146.808 51.9063L148.148 51.4294L149.033 52.5436L150.373 52.0667L151.259 53.181L152.598 52.7039L153.483 53.8181L154.824 53.3413L155.385 54.0479Z" fill="#C4C4E1"/>
<path d="M156 42.9907V49.5993L155.266 49.0746L154.109 49.9022L152.951 49.0746L151.795 49.9022L150.638 49.0746L149.48 49.9022L148.323 49.0746L147.166 49.9022L146.009 49.0746L144.852 49.9022L143.694 49.0746L142.537 49.9022L141.381 49.0746L140.223 49.9022L139.797 49.5972V40.0675C139.797 39.4659 140.284 38.9785 140.885 38.9785H151.919L151.992 39.0501L156 42.9907Z" fill="#C4C4E1"/>
<path opacity="0.1" d="M155.998 42.9915H152.876C152.387 42.9915 151.99 42.5945 151.99 42.1047V39.0508L155.998 42.9915Z" fill="black"/>
</svg>
