<svg width="136" height="136" viewBox="0 0 136 136" fill="none" xmlns="http://www.w3.org/2000/svg">
<rect width="136" height="136" rx="8" fill="#F3F4F6"/>
<path d="M44.45 85.5252L44.4 85.5752C43.725 84.1002 43.3 82.4252 43.125 80.5752C43.3 82.4002 43.775 84.0502 44.45 85.5252Z" fill="#D1D5DB"/>
<path d="M60.4998 63.9498C63.7859 63.9498 66.4498 61.2859 66.4498 57.9998C66.4498 54.7137 63.7859 52.0498 60.4998 52.0498C57.2137 52.0498 54.5498 54.7137 54.5498 57.9998C54.5498 61.2859 57.2137 63.9498 60.4998 63.9498Z" fill="#D1D5DB"/>
<path d="M78.475 43H57.525C48.425 43 43 48.425 43 57.525V78.475C43 81.2 43.475 83.575 44.4 85.575C46.55 90.325 51.15 93 57.525 93H78.475C87.575 93 93 87.575 93 78.475V72.75V57.525C93 48.425 87.575 43 78.475 43ZM88.925 69.25C86.975 67.575 83.825 67.575 81.875 69.25L71.475 78.175C69.525 79.85 66.375 79.85 64.425 78.175L63.575 77.475C61.8 75.925 58.975 75.775 56.975 77.125L47.625 83.4C47.075 82 46.75 80.375 46.75 78.475V57.525C46.75 50.475 50.475 46.75 57.525 46.75H78.475C85.525 46.75 89.25 50.475 89.25 57.525V69.525L88.925 69.25Z" fill="#D1D5DB"/>
</svg>
